<svg xmlns="http://www.w3.org/2000/svg" viewBox="0 0 520 680" role="img" aria-label="Anatomical full leg placement placeholder">
  <defs>
    <linearGradient id="skin" x1="0" x2="1" y1="0" y2="1">
      <stop offset="0" stop-color="#f3c8ad"/>
      <stop offset=".42" stop-color="#dc9872"/>
      <stop offset=".72" stop-color="#bd7053"/>
      <stop offset="1" stop-color="#824937"/>
    </linearGradient>
    <radialGradient id="light" cx="36%" cy="12%" r="78%">
      <stop offset="0" stop-color="#fff4dc" stop-opacity=".6"/>
      <stop offset=".48" stop-color="#fff4dc" stop-opacity=".12"/>
      <stop offset="1" stop-color="#090706" stop-opacity=".18"/>
    </radialGradient>
    <linearGradient id="edgeShade" x1="0" x2="1">
      <stop offset="0" stop-color="#3a1d16" stop-opacity=".18"/>
      <stop offset=".38" stop-color="#3a1d16" stop-opacity="0"/>
      <stop offset=".66" stop-color="#3a1d16" stop-opacity=".02"/>
      <stop offset="1" stop-color="#3a1d16" stop-opacity=".28"/>
    </linearGradient>
  </defs>
  <rect width="520" height="680" fill="#151210"/>

  <path d="M207 26c50-9 95-4 136 14 18 55 16 113-5 174-12 35-14 68-4 99 16 52 16 99 1 141-15 41-39 77-72 108 20 11 46 19 78 25 30 6 49 20 57 43-21 27-59 40-114 39-46-1-82-10-108-28-14-30-11-63 8-101 20-39 30-78 31-117 1-31-8-61-26-89-25-38-35-81-31-128 5-61 21-121 49-180z" fill="url(#skin)"/>

  <path d="M254 37c-28 67-36 132-24 194 7 37 23 69 48 96-18 38-23 78-15 121 8 42 0 83-24 122" fill="none" stroke="#fff4dc" stroke-opacity=".2" stroke-width="7" stroke-linecap="round"/>
  <path d="M316 61c18 57 12 112-18 167-17 31-20 62-10 93 14 42 12 84-6 125-18 42-47 79-86 110" fill="none" stroke="#2d120e" stroke-opacity=".3" stroke-width="6" stroke-linecap="round"/>

  <path d="M222 83c35 30 76 36 121 18M217 161c37 31 77 34 121 9" fill="none" stroke="#fff4dc" stroke-opacity=".16" stroke-width="7" stroke-linecap="round"/>
  <path d="M216 230c28 24 62 28 102 12M211 302c34 32 73 39 117 22" fill="none" stroke="#6f382a" stroke-opacity=".25" stroke-width="6" stroke-linecap="round"/>

  <ellipse cx="279" cy="145" rx="62" ry="104" fill="#a85640" opacity=".13" transform="rotate(8 279 145)"/>
  <ellipse cx="288" cy="425" rx="39" ry="105" fill="#7d3d31" opacity=".15" transform="rotate(4 288 425)"/>

  <path d="M234 346c29 16 63 13 99-9" fill="none" stroke="#fff4dc" stroke-opacity=".18" stroke-width="7" stroke-linecap="round"/>
  <path d="M226 374c31 13 64 8 99-14" fill="none" stroke="#2d120e" stroke-opacity=".2" stroke-width="5" stroke-linecap="round"/>
  <path d="M240 414c-7 54-1 103 18 148M313 407c-8 55-29 101-62 138" fill="none" stroke="#fff4dc" stroke-opacity=".16" stroke-width="6" stroke-linecap="round"/>
  <path d="M237 522c24 13 51 9 82-10M211 574c39 9 78 2 118-22" fill="none" stroke="#4a221a" stroke-opacity=".22" stroke-width="5" stroke-linecap="round"/>

  <path d="M190 602c40 24 90 34 149 29M203 630c17 7 35 10 55 9M268 637c19 3 39 1 61-4" fill="none" stroke="#2d120e" stroke-opacity=".24" stroke-width="6" stroke-linecap="round"/>
  <path d="M201 642c-10 9-12 18-6 28M226 648c-8 8-9 15-3 22M251 651c-6 7-6 13 0 19M278 652c-5 6-4 12 2 17" fill="none" stroke="#fff4dc" stroke-opacity=".2" stroke-width="5" stroke-linecap="round"/>

  <ellipse cx="278" cy="663" rx="104" ry="17" fill="#0b0908" opacity=".25"/>
  <rect width="520" height="680" fill="url(#edgeShade)"/>
  <rect width="520" height="680" fill="url(#light)"/>
</svg>
